<svg width="100" height="100" viewBox="0 0 100 100" fill="none" xmlns="http://www.w3.org/2000/svg">
<g id="user">
<path id="Path 4" d="M22.9167 81.25C22.9167 81.25 37.5 75 41.6667 70.8333C45.8333 66.6667 33.3333 66.6667 33.3333 45.8333C33.3333 25 50 25 50 25C50 25 66.6667 25 66.6667 45.8333C66.6667 66.6667 54.1667 66.6667 58.3333 70.8333C62.5 75 77.0833 81.25 77.0833 81.25" stroke="black" stroke-width="3" stroke-linecap="round"/>
<path id="Oval" fill-rule="evenodd" clip-rule="evenodd" d="M50 91.6667C73.0119 91.6667 91.6667 73.0119 91.6667 50C91.6667 26.9881 73.0119 8.33331 50 8.33331C26.9881 8.33331 8.33333 26.9881 8.33333 50C8.33333 73.0119 26.9881 91.6667 50 91.6667Z" stroke="black" stroke-width="3"/>
</g>
</svg>
